<svg xmlns="http://www.w3.org/2000/svg" width="27.074" height="30" viewBox="0 0 27.074 30">
  <path id="discord" d="M25.278,0a3.289,3.289,0,0,1,3.259,3.094V30l-3.346-2.841-1.837-1.673-2.005-1.747.838,2.756H4.638A3.1,3.1,0,0,1,1.463,23.4V3.1A3.163,3.163,0,0,1,4.644,0H25.269ZM17.63,7.1h-.037l-.253.25a10.074,10.074,0,0,1,3.845,1.921A13.6,13.6,0,0,0,16.5,7.854a12.841,12.841,0,0,0-3.094,0h-.25a11.152,11.152,0,0,0-3.513.919c-.584.254-.919.42-.919.42a8.919,8.919,0,0,1,4.013-1.921L12.573,7.1A7.511,7.511,0,0,0,8.227,8.69a19.565,19.565,0,0,0-2.256,8.775,5.456,5.456,0,0,0,4.679,2.258s.5-.666,1.006-1.252a4.946,4.946,0,0,1-2.675-1.755,4.216,4.216,0,0,1,.419.25h.075A.1.1,0,0,1,9.55,17v.007a.1.1,0,0,0,.075.037c.413.17.825.338,1.163.5a10.225,10.225,0,0,0,2.25.67,12.834,12.834,0,0,0,4.013,0,11.57,11.57,0,0,0,2.25-.669,18.049,18.049,0,0,0,1.746-.921,4.967,4.967,0,0,1-2.756,1.755c.413.583.994,1.25.994,1.25a6.529,6.529,0,0,0,4.838-2.157A19.519,19.519,0,0,0,21.854,8.7,7.513,7.513,0,0,0,17.56,7.125l.07-.025Zm.21,5.516A1.674,1.674,0,1,1,16.253,14.3,1.63,1.63,0,0,1,17.84,12.62Zm-5.679,0A1.674,1.674,0,1,1,10.57,14.3a1.629,1.629,0,0,1,1.591-1.677Z" transform="translate(-1.463)" fill="#fefefe"/>
</svg>
