<svg xmlns="http://www.w3.org/2000/svg" width="29.972" height="29.972" viewBox="0 0 29.972 29.972">
  <path id="linkedin" d="M26.237,29.971H3.759a3.61,3.61,0,0,1-2.649-1.1,3.606,3.606,0,0,1-1.1-2.649V3.746A3.61,3.61,0,0,1,1.111,1.1,3.61,3.61,0,0,1,3.76,0H26.238a3.61,3.61,0,0,1,2.649,1.1,3.61,3.61,0,0,1,1.1,2.649V26.224a3.749,3.749,0,0,1-3.747,3.747ZM7.5,4.683a.949.949,0,0,0-.937-.937H4.695a.949.949,0,0,0-.937.937V6.556a.949.949,0,0,0,.937.937H6.568A.949.949,0,0,0,7.5,6.556Zm0,5.62a.949.949,0,0,0-.937-.937H4.695a.949.949,0,0,0-.937.937V25.288a.949.949,0,0,0,.937.937H6.568a.949.949,0,0,0,.937-.937V10.3Zm18.732,4.683a5.6,5.6,0,0,0-5.619-5.619,11.016,11.016,0,0,0-2.824.41A11.384,11.384,0,0,0,15,10.918V10.3a.949.949,0,0,0-.937-.937H12.189a.949.949,0,0,0-.937.937V25.288a.949.949,0,0,0,.937.937h1.873A.949.949,0,0,0,15,25.288V16.859a3.749,3.749,0,0,1,3.747-3.747,3.749,3.749,0,0,1,3.747,3.747v8.429a.949.949,0,0,0,.937.937H25.3a.949.949,0,0,0,.937-.937v-10.3Z" transform="translate(-0.013 0.001)" fill="#fefefe"/>
</svg>
