<svg xmlns="http://www.w3.org/2000/svg" width="30" height="30" viewBox="0 0 30 30"><path d="M17.5,2.5c-4.074,0-4.584.018-6.185.09a11.05,11.05,0,0,0-3.641.7A7.653,7.653,0,0,0,3.287,7.676a11.02,11.02,0,0,0-.7,3.641c-.073,1.6-.09,2.11-.09,6.184s.017,4.584.09,6.185a11.051,11.051,0,0,0,.7,3.641,7.655,7.655,0,0,0,4.387,4.387,11.019,11.019,0,0,0,3.641.7c1.6.072,2.111.09,6.185.09s4.584-.018,6.185-.09a11.051,11.051,0,0,0,3.641-.7,7.655,7.655,0,0,0,4.387-4.387,11.019,11.019,0,0,0,.7-3.641c.072-1.6.09-2.111.09-6.185s-.018-4.584-.09-6.185a11.051,11.051,0,0,0-.7-3.641,7.655,7.655,0,0,0-4.387-4.387,11.02,11.02,0,0,0-3.641-.7c-1.6-.072-2.111-.09-6.185-.09m0,2.7c4,0,4.48.016,6.06.088a8.341,8.341,0,0,1,2.788.516A4.963,4.963,0,0,1,29.2,8.654a8.33,8.33,0,0,1,.516,2.785c.072,1.583.088,2.056.088,6.061s-.016,4.48-.088,6.06a8.372,8.372,0,0,1-.516,2.788A4.963,4.963,0,0,1,26.348,29.2a8.33,8.33,0,0,1-2.785.516c-1.582.072-2.056.088-6.061.088s-4.481-.016-6.06-.088A8.372,8.372,0,0,1,8.654,29.2a4.963,4.963,0,0,1-2.848-2.848,8.3,8.3,0,0,1-.516-2.785C5.218,21.98,5.2,21.507,5.2,17.5s.016-4.48.088-6.06a8.341,8.341,0,0,1,.516-2.788A4.963,4.963,0,0,1,8.654,5.806a8.3,8.3,0,0,1,2.785-.516C13.022,5.218,13.494,5.2,17.5,5.2m0,17.3a5,5,0,1,1,5-5,5,5,0,0,1-5,5m0-12.7a7.7,7.7,0,1,0,7.7,7.7,7.7,7.7,0,0,0-7.7-7.7m9.806-.3a1.8,1.8,0,1,1-1.8-1.8,1.8,1.8,0,0,1,1.8,1.8" transform="translate(-2.5 -2.5)" fill="#fefefe" fill-rule="evenodd"/></svg>