<svg xmlns="http://www.w3.org/2000/svg" width="30" height="30" viewBox="0 0 30 30">
  <path id="twitter-square" d="M25,9.414a8.7,8.7,0,0,1-2.363.664,3.985,3.985,0,0,0,1.816-2.285,8.167,8.167,0,0,1-2.617,1A3.9,3.9,0,0,0,18.848,7.5a4.1,4.1,0,0,0-4.1,4.1,3.76,3.76,0,0,0,.1.938,11.614,11.614,0,0,1-4.727-1.27,11.627,11.627,0,0,1-3.75-3.028,4.066,4.066,0,0,0-.566,2.07A3.868,3.868,0,0,0,7.578,13.73a4.846,4.846,0,0,1-1.953-.508v.039A3.9,3.9,0,0,0,6.6,15.868,4.112,4.112,0,0,0,9,17.285a3.812,3.812,0,0,1-1,.156,5.514,5.514,0,0,1-.762-.078A4.17,4.17,0,0,0,8.7,19.394a3.894,3.894,0,0,0,2.373.82,8.105,8.105,0,0,1-5.1,1.758A7.826,7.826,0,0,1,5,21.913a11.507,11.507,0,0,0,6.289,1.836,11.958,11.958,0,0,0,4.1-.693A10.558,10.558,0,0,0,18.671,21.2a12.33,12.33,0,0,0,2.354-2.676,11.823,11.823,0,0,0,1.944-6.455,5.067,5.067,0,0,0-.02-.527A7.986,7.986,0,0,0,25,9.414Zm5-3.789v18.75A5.633,5.633,0,0,1,24.375,30H5.625A5.42,5.42,0,0,1,1.65,28.35,5.413,5.413,0,0,1,0,24.375V5.625A5.42,5.42,0,0,1,1.65,1.65,5.413,5.413,0,0,1,5.625,0h18.75A5.42,5.42,0,0,1,28.35,1.65,5.413,5.413,0,0,1,30,5.625Z" transform="translate(0 0)" fill="#fefefe"/>
</svg>
