<?xml version="1.0" encoding="UTF-8" ?>
<!DOCTYPE svg PUBLIC "-//W3C//DTD SVG 1.1//EN" "http://www.w3.org/Graphics/SVG/1.1/DTD/svg11.dtd">
<svg xmlns="http://www.w3.org/2000/svg" xmlns:xlink="http://www.w3.org/1999/xlink">

<symbol id='leftarrow'>
<path d="M8,0,6.57,1.394,12.15,7H0V9H12.15L6.571,14.573,8,16l8-8Z"/>
</symbol>

<symbol id= 'rightarrow'>
<path d="M13,5,11.57,6.394,17.15,12H5v2H17.15l-5.579,5.573L13,21l8-8Z"/>
</symbol>

<symbol id='bottomarrow'>
<path d="M1.25,10A8.75,8.75,0,1,0,10,1.25,8.75,8.75,0,0,0,1.25,10ZM5,9.375h7.594l-3.487-3.5L10,5l5,5-5,5-.894-.892,3.488-3.483H5Z" transform="translate(18.75 -1.25) rotate(90)"/>
</symbol>

<symbol id='arrowfilled'>
  <path d="M1.25,11.25a10,10,0,1,0,10-10,10,10,0,0,0-10,10Zm4.286-.714h8.679l-3.985-4,1.021-1,5.714,5.714L11.25,16.964l-1.022-1.019,3.986-3.981H5.536Z" transform="translate(-1.25 -1.25)"/>
</symbol>

<symbol id='instagram-icon'>
  <path d="M17.5,2.5c-4.074,0-4.584.018-6.185.09a11.05,11.05,0,0,0-3.641.7A7.653,7.653,0,0,0,3.287,7.676a11.02,11.02,0,0,0-.7,3.641c-.073,1.6-.09,2.11-.09,6.184s.017,4.584.09,6.185a11.051,11.051,0,0,0,.7,3.641,7.655,7.655,0,0,0,4.387,4.387,11.019,11.019,0,0,0,3.641.7c1.6.072,2.111.09,6.185.09s4.584-.018,6.185-.09a11.051,11.051,0,0,0,3.641-.7,7.655,7.655,0,0,0,4.387-4.387,11.019,11.019,0,0,0,.7-3.641c.072-1.6.09-2.111.09-6.185s-.018-4.584-.09-6.185a11.051,11.051,0,0,0-.7-3.641,7.655,7.655,0,0,0-4.387-4.387,11.02,11.02,0,0,0-3.641-.7c-1.6-.072-2.111-.09-6.185-.09m0,2.7c4,0,4.48.016,6.06.088a8.341,8.341,0,0,1,2.788.516A4.963,4.963,0,0,1,29.2,8.654a8.33,8.33,0,0,1,.516,2.785c.072,1.583.088,2.056.088,6.061s-.016,4.48-.088,6.06a8.372,8.372,0,0,1-.516,2.788A4.963,4.963,0,0,1,26.348,29.2a8.33,8.33,0,0,1-2.785.516c-1.582.072-2.056.088-6.061.088s-4.481-.016-6.06-.088A8.372,8.372,0,0,1,8.654,29.2a4.963,4.963,0,0,1-2.848-2.848,8.3,8.3,0,0,1-.516-2.785C5.218,21.98,5.2,21.507,5.2,17.5s.016-4.48.088-6.06a8.341,8.341,0,0,1,.516-2.788A4.963,4.963,0,0,1,8.654,5.806a8.3,8.3,0,0,1,2.785-.516C13.022,5.218,13.494,5.2,17.5,5.2m0,17.3a5,5,0,1,1,5-5,5,5,0,0,1-5,5m0-12.7a7.7,7.7,0,1,0,7.7,7.7,7.7,7.7,0,0,0-7.7-7.7m9.806-.3a1.8,1.8,0,1,1-1.8-1.8,1.8,1.8,0,0,1,1.8,1.8" transform="translate(-2.5 -2.5)" fill-rule="evenodd"/>
</symbol>

<symbol id='facebook-icon'>
<path id="facebook-rect" d="M5.478,0A5.466,5.466,0,0,0,0,5.478V24.522A5.466,5.466,0,0,0,5.478,30H15.8V18.272H12.7V14.049h3.1V10.442C15.8,7.608,17.631,5,21.852,5a25.62,25.62,0,0,1,2.973.164l-.1,3.943S23.437,9.1,22.031,9.1c-1.522,0-1.766.7-1.766,1.866v3.083h4.582l-.2,4.223H20.265V30h4.257A5.466,5.466,0,0,0,30,24.522V5.478A5.466,5.466,0,0,0,24.522,0Z"/>
</symbol>

<symbol id='twitter-icon'>
<path id="twitter-square" d="M25,9.414a8.7,8.7,0,0,1-2.363.664,3.985,3.985,0,0,0,1.816-2.285,8.167,8.167,0,0,1-2.617,1A3.9,3.9,0,0,0,18.848,7.5a4.1,4.1,0,0,0-4.1,4.1,3.76,3.76,0,0,0,.1.938,11.614,11.614,0,0,1-4.727-1.27,11.627,11.627,0,0,1-3.75-3.028,4.066,4.066,0,0,0-.566,2.07A3.868,3.868,0,0,0,7.578,13.73a4.846,4.846,0,0,1-1.953-.508v.039A3.9,3.9,0,0,0,6.6,15.868,4.112,4.112,0,0,0,9,17.285a3.812,3.812,0,0,1-1,.156,5.514,5.514,0,0,1-.762-.078A4.17,4.17,0,0,0,8.7,19.394a3.894,3.894,0,0,0,2.373.82,8.105,8.105,0,0,1-5.1,1.758A7.826,7.826,0,0,1,5,21.913a11.507,11.507,0,0,0,6.289,1.836,11.958,11.958,0,0,0,4.1-.693A10.558,10.558,0,0,0,18.671,21.2a12.33,12.33,0,0,0,2.354-2.676,11.823,11.823,0,0,0,1.944-6.455,5.067,5.067,0,0,0-.02-.527A7.986,7.986,0,0,0,25,9.414Zm5-3.789v18.75A5.633,5.633,0,0,1,24.375,30H5.625A5.42,5.42,0,0,1,1.65,28.35,5.413,5.413,0,0,1,0,24.375V5.625A5.42,5.42,0,0,1,1.65,1.65,5.413,5.413,0,0,1,5.625,0h18.75A5.42,5.42,0,0,1,28.35,1.65,5.413,5.413,0,0,1,30,5.625Z" transform="translate(0 0)"/>
</symbol>

<symbol id='discord-icon'>
<path id="discord" d="M25.278,0a3.289,3.289,0,0,1,3.259,3.094V30l-3.346-2.841-1.837-1.673-2.005-1.747.838,2.756H4.638A3.1,3.1,0,0,1,1.463,23.4V3.1A3.163,3.163,0,0,1,4.644,0H25.269ZM17.63,7.1h-.037l-.253.25a10.074,10.074,0,0,1,3.845,1.921A13.6,13.6,0,0,0,16.5,7.854a12.841,12.841,0,0,0-3.094,0h-.25a11.152,11.152,0,0,0-3.513.919c-.584.254-.919.42-.919.42a8.919,8.919,0,0,1,4.013-1.921L12.573,7.1A7.511,7.511,0,0,0,8.227,8.69a19.565,19.565,0,0,0-2.256,8.775,5.456,5.456,0,0,0,4.679,2.258s.5-.666,1.006-1.252a4.946,4.946,0,0,1-2.675-1.755,4.216,4.216,0,0,1,.419.25h.075A.1.1,0,0,1,9.55,17v.007a.1.1,0,0,0,.075.037c.413.17.825.338,1.163.5a10.225,10.225,0,0,0,2.25.67,12.834,12.834,0,0,0,4.013,0,11.57,11.57,0,0,0,2.25-.669,18.049,18.049,0,0,0,1.746-.921,4.967,4.967,0,0,1-2.756,1.755c.413.583.994,1.25.994,1.25a6.529,6.529,0,0,0,4.838-2.157A19.519,19.519,0,0,0,21.854,8.7,7.513,7.513,0,0,0,17.56,7.125l.07-.025Zm.21,5.516A1.674,1.674,0,1,1,16.253,14.3,1.63,1.63,0,0,1,17.84,12.62Zm-5.679,0A1.674,1.674,0,1,1,10.57,14.3a1.629,1.629,0,0,1,1.591-1.677Z" transform="translate(-1.463)"/>
</symbol>

<symbol id='linkedin-icon'>
<path id="linkedin" d="M26.237,29.971H3.759a3.61,3.61,0,0,1-2.649-1.1,3.606,3.606,0,0,1-1.1-2.649V3.746A3.61,3.61,0,0,1,1.111,1.1,3.61,3.61,0,0,1,3.76,0H26.238a3.61,3.61,0,0,1,2.649,1.1,3.61,3.61,0,0,1,1.1,2.649V26.224a3.749,3.749,0,0,1-3.747,3.747ZM7.5,4.683a.949.949,0,0,0-.937-.937H4.695a.949.949,0,0,0-.937.937V6.556a.949.949,0,0,0,.937.937H6.568A.949.949,0,0,0,7.5,6.556Zm0,5.62a.949.949,0,0,0-.937-.937H4.695a.949.949,0,0,0-.937.937V25.288a.949.949,0,0,0,.937.937H6.568a.949.949,0,0,0,.937-.937V10.3Zm18.732,4.683a5.6,5.6,0,0,0-5.619-5.619,11.016,11.016,0,0,0-2.824.41A11.384,11.384,0,0,0,15,10.918V10.3a.949.949,0,0,0-.937-.937H12.189a.949.949,0,0,0-.937.937V25.288a.949.949,0,0,0,.937.937h1.873A.949.949,0,0,0,15,25.288V16.859a3.749,3.749,0,0,1,3.747-3.747,3.749,3.749,0,0,1,3.747,3.747v8.429a.949.949,0,0,0,.937.937H25.3a.949.949,0,0,0,.937-.937v-10.3Z" transform="translate(-0.013 0.001)"/>
</symbol>


</svg>